<svg width="24" height="24" viewBox="0 0 24 24" fill="none" xmlns="http://www.w3.org/2000/svg">
<path fill-rule="evenodd" clip-rule="evenodd" d="M23.4125 20.5763L18.1987 15.3626C18.171 15.3348 18.1385 15.3155 18.1095 15.2897C19.1354 13.7335 19.7342 11.8706 19.7342 9.86729C19.7342 4.41776 15.3165 9.15527e-05 9.8671 9.15527e-05C4.41767 9.15527e-05 0 4.41776 0 9.8672C0 15.3165 4.41757 19.7343 9.86701 19.7343C11.8704 19.7343 13.7332 19.1355 15.2894 18.1096C15.3152 18.1385 15.3345 18.171 15.3622 18.1987L20.5761 23.4126C21.3594 24.1958 22.6292 24.1958 23.4125 23.4126C24.1957 22.6294 24.1957 21.3596 23.4125 20.5763ZM9.8671 16.3137C6.3067 16.3137 3.42052 13.4275 3.42052 9.8672C3.42052 6.30679 6.30679 3.42061 9.8671 3.42061C13.4273 3.42061 16.3136 6.30688 16.3136 9.8672C16.3136 13.4275 13.4273 16.3137 9.8671 16.3137Z" fill="#FFE6E6"/>
</svg>
